<svg width="24" height="24" viewBox="0 0 24 24" fill="none" xmlns="http://www.w3.org/2000/svg">
    <path d="M22.1239 24C19.4878 24 16.869 23.3449 
    14.2675 22.0347C11.665 20.7254 9.34121 19.0088 
    7.29598 16.8849C5.25075 14.7611 3.59775 12.354 
    2.33698 9.66372C1.0753 6.97346 0.444458 4.2478 
    0.444458 1.48673C0.444458 1.06195 0.580805 
    0.707969 0.853502 0.424783C1.1262 0.141597 
    1.46707 0 1.87612 0H6.30746C6.67105 0 6.98329 
    0.111858 7.24417 0.335575C7.50596 0.560236 
    7.67094 0.849552 7.73912 1.20353L8.52312 
    5.38054C8.56857 5.73452 8.55721 6.0531 
    8.48903 6.33629C8.42086 6.61947 8.27315 
    6.86725 8.0459 7.07964L4.94396 10.2655C6.01203 
    12.1534 7.29007 13.8643 8.77809 15.3982C10.267 
    16.9321 11.9546 18.2655 13.8407 19.3982L16.8745 
    16.2124C17.1017 15.9764 17.369 15.8112 17.6762 
    15.7168C17.9825 15.6224 18.2948 15.5988 18.6129 
    15.646L22.3966 16.4602C22.7375 16.531 23.0161 
    16.6962 23.2324 16.9557C23.4479 17.2153 23.5556 
    17.5339 23.5556 17.9115V22.5133C23.5556 22.938 
    23.4192 23.292 23.1465 23.5752C22.8738 23.8584 
    22.533 24 22.1239 24Z" fill="#FF6F00"/>
</svg>
