<svg width="14" height="14" viewBox="0 0 14 14" fill="none" xmlns="http://www.w3.org/2000/svg">
<path fill-rule="evenodd" clip-rule="evenodd" d="M7.00004 14.0001C10.676 14.0001 13.6667 11.0093 13.6667 7.33338C13.6667 3.65757 10.676 0.666718 7.00004 0.666718C3.32404 0.666718 0.333374 3.65757 0.333374 7.33338C0.333374 11.0093 3.32404 14.0001 7.00004 14.0001ZM10.7688 5.70654L6.50507 9.97022C6.37111 10.1042 6.18942 10.1795 5.99999 10.1795C5.81057 10.1795 5.62887 10.1042 5.49494 9.97022L3.23125 7.70656C2.95248 7.42779 2.9524 6.97524 3.23133 6.69651C3.51031 6.41776 3.96247 6.41769 4.24138 6.69656L5.99999 8.45502L9.75857 4.6966C10.0375 4.41772 10.4897 4.41777 10.7686 4.69655C11.0475 4.97527 11.0476 5.42774 10.7688 5.70654Z" fill="#E31E25"/>
</svg>
